<?xml version="1.0" standalone="no"?>
<!DOCTYPE svg PUBLIC "-//W3C//DTD SVG 20010904//EN"
 "http://www.w3.org/TR/2001/REC-SVG-20010904/DTD/svg10.dtd">
<svg version="1.0" xmlns="http://www.w3.org/2000/svg"
 width="204.000000pt" height="192.000000pt" viewBox="0 0 204.000000 192.000000"
 preserveAspectRatio="xMidYMid meet">
<metadata>
Created by potrace 1.10, written by Peter Selinger 2001-2011
</metadata>
<g transform="translate(0.000000,192.000000) scale(0.100000,-0.100000)"
fill="#000000" stroke="none">
<path d="M1276 1839 c-60 -12 -186 -69 -205 -92 -26 -33 13 -29 72 6 102 62
294 74 418 27 109 -41 217 -148 250 -247 16 -49 49 -73 49 -35 0 30 -57 136
-100 185 -108 123 -317 190 -484 156z"/>
<path d="M1330 1731 c0 -34 4 -61 10 -61 6 0 10 12 11 28 l1 27 10 -28 c5 -15
14 -25 19 -21 5 3 5 13 -1 24 -6 11 -9 34 -8 52 3 28 -1 34 -19 36 -22 3 -23
0 -23 -57z"/>
<path d="M1466 1729 c-18 -58 -15 -69 17 -69 19 1 20 2 7 13 -22 18 -13 57 13
57 22 1 22 1 3 15 -19 15 -19 15 5 15 19 0 21 2 9 10 -28 18 -39 10 -54 -41z"/>
<path d="M1185 1756 c-17 -12 -16 -15 10 -59 15 -26 31 -47 36 -47 13 0 11 7
-7 35 -12 18 -13 29 -6 38 7 8 7 17 -2 29 -11 15 -16 15 -31 4z"/>
<path d="M467 1729 c-59 -9 -121 -48 -147 -92 -68 -110 67 -263 164 -186 41
32 30 89 -16 89 -23 0 -35 -27 -19 -43 18 -18 13 -37 -9 -37 -29 0 -76 26 -84
45 -20 54 14 127 74 157 79 40 200 15 515 -105 111 -43 389 -117 438 -117 11
0 18 -2 16 -5 -4 -3 -141 -21 -524 -65 -49 -6 -160 -19 -245 -30 -85 -11 -169
-20 -187 -20 -33 0 -52 -15 -37 -30 9 -8 260 19 844 90 336 40 345 42 345 60
0 12 -13 14 -71 12 -110 -5 -417 59 -475 99 -33 23 -53 70 -45 104 5 21 10 24
36 18 25 -5 30 -2 30 15 0 40 -60 44 -89 6 -25 -32 -26 -55 -6 -94 19 -36 17
-36 -45 -5 -58 29 -225 96 -295 118 -68 21 -111 25 -168 16z"/>
<path d="M1598 1686 c-30 -37 -35 -60 -16 -72 14 -9 48 31 48 57 0 10 3 18 8
18 19 -3 23 2 12 16 -17 21 -21 19 -52 -19z"/>
<path d="M442 1639 c-41 -21 -72 -61 -72 -94 0 -8 5 -15 10 -15 6 0 10 13 10
29 0 55 85 98 174 88 28 -3 141 -38 251 -77 259 -93 415 -139 415 -122 0 4
-28 14 -62 21 -35 7 -171 51 -303 98 -279 99 -348 111 -423 72z"/>
<path d="M1255 1629 c-65 -25 -103 -55 -90 -68 7 -7 29 -1 67 18 106 54 224
49 315 -12 42 -29 59 -48 99 -113 9 -15 15 -16 24 -7 10 9 7 21 -14 58 -31 53
-101 107 -165 130 -62 21 -174 19 -236 -6z"/>
<path d="M1687 1587 c-27 -17 -44 -33 -38 -35 5 -2 21 4 35 14 14 9 26 12 26
7 0 -5 -11 -16 -25 -23 -14 -7 -25 -17 -25 -22 0 -13 9 -10 56 22 44 31 57 47
29 36 -18 -7 -20 5 -3 22 22 22 -7 12 -55 -21z"/>
<path d="M530 1556 c0 -9 7 -16 15 -16 12 0 15 -13 15 -59 0 -55 8 -71 35 -71
2 0 5 28 7 63 3 54 5 62 21 59 13 -2 18 2 15 15 -4 25 -108 33 -108 9z"/>
<path d="M660 1486 c0 -65 2 -74 20 -79 17 -4 20 0 20 24 0 16 5 29 10 29 6 0
10 -13 10 -30 0 -23 4 -30 20 -30 18 0 20 7 20 69 0 60 -2 69 -20 74 -17 4
-20 0 -20 -30 0 -20 -4 -32 -10 -28 -5 3 -10 19 -10 35 0 23 -15 40 -36 40 -2
0 -4 -33 -4 -74z"/>
<path d="M788 1466 c3 -56 6 -65 25 -70 37 -10 57 -7 57 9 0 9 -9 15 -25 15
-14 0 -25 5 -25 10 0 6 7 10 15 10 8 0 15 7 15 15 0 8 -7 15 -15 15 -8 0 -15
7 -15 16 0 12 6 15 25 10 20 -5 25 -3 25 14 0 17 -7 20 -42 20 l-43 0 3 -64z"/>
<path d="M1705 1446 c-27 -13 -64 -39 -82 -57 -35 -38 -68 -105 -54 -113 5 -3
14 8 21 24 14 35 89 106 125 120 20 8 29 6 46 -11 16 -16 23 -18 35 -8 27 22
10 69 -25 69 -9 0 -38 -11 -66 -24z"/>
<path d="M1485 1373 c-19 -4 -20 -10 -17 -168 l3 -165 -33 19 c-18 10 -44 22
-58 26 -14 4 -40 18 -57 32 -29 21 -33 30 -34 76 l-2 52 -8 -40 c-6 -29 -7
-19 -4 38 3 56 9 84 20 97 17 18 16 19 -21 14 -63 -9 -68 -12 -54 -30 10 -11
12 -61 7 -221 -7 -217 -5 -233 36 -233 16 0 18 3 9 12 -13 13 -15 114 -2 193
l7 50 3 -60 c4 -58 4 -59 7 -13 l4 46 27 -14 c15 -8 53 -25 85 -39 l57 -24 0
-94 c0 -101 12 -127 58 -127 28 0 28 16 0 23 l-21 6 7 258 c6 215 10 261 23
275 15 17 15 18 -3 17 -10 -1 -28 -4 -39 -6z"/>
<path d="M1515 1107 c-4 -129 -5 -241 -3 -248 3 -8 8 95 13 229 4 134 5 245 2
248 -3 3 -8 -100 -12 -229z"/>
<path d="M696 1281 c-25 -5 -27 -8 -14 -19 12 -9 14 -28 11 -85 -6 -111 -7
-112 -65 -137 -29 -12 -70 -33 -90 -46 -21 -13 -39 -24 -41 -24 -2 0 -3 55 -1
123 l3 122 -9 -129 c-5 -71 -12 -131 -15 -135 -14 -14 7 264 22 287 8 13 13
25 11 26 -2 2 -22 1 -46 -2 -39 -4 -42 -6 -29 -21 11 -13 12 -51 1 -245 -12
-214 -14 -230 -35 -252 -19 -21 -20 -24 -5 -24 9 0 28 7 41 16 22 14 25 24 26
78 0 33 5 70 10 81 6 14 8 -4 5 -55 -3 -49 -2 -64 4 -45 4 17 8 54 9 83 1 50
3 54 44 83 23 16 67 41 96 55 l54 24 -7 -92 c-5 -77 -10 -96 -27 -110 -21 -18
-21 -18 7 -18 16 0 34 4 41 8 7 4 16 78 23 207 8 118 18 211 26 228 14 30 10
31 -50 18z"/>
<path d="M1125 1269 c-16 -10 -43 -19 -58 -19 -96 0 -161 -103 -142 -226 10
-67 40 -94 105 -94 28 0 64 7 80 15 30 15 30 15 30 -11 0 -16 5 -24 13 -22 8
3 13 34 15 98 1 52 8 100 13 107 9 10 0 11 -43 6 -53 -6 -78 -17 -65 -29 4 -4
18 -2 31 4 25 11 36 7 36 -14 0 -7 -14 -14 -31 -16 -18 -2 -37 -11 -43 -20
-15 -25 3 -37 20 -13 11 15 18 17 32 9 46 -29 9 -84 -56 -84 -51 0 -82 37 -82
97 0 74 17 120 54 148 40 31 91 33 106 5 18 -33 40 -13 40 36 0 49 -9 53 -55
23z"/>
<path d="M746 1208 c-8 -59 -11 -177 -4 -183 5 -5 18 217 13 223 -1 2 -5 -16
-9 -40z"/>
<path d="M846 1243 c-44 -4 -47 -5 -33 -21 13 -15 14 -37 7 -152 -13 -190 -12
-197 6 -204 22 -8 33 2 14 14 -10 6 -11 12 -2 22 7 9 14 73 18 157 7 133 9
143 31 160 22 18 30 33 16 29 -5 -1 -30 -3 -57 -5z"/>
<path d="M875 1188 c-7 -25 -11 -248 -4 -248 4 0 9 59 11 130 3 126 2 144 -7
118z"/>
<path d="M1184 1015 c0 -55 1 -76 3 -47 2 29 2 74 0 100 -2 26 -3 2 -3 -53z"/>
<path d="M733 930 c0 -47 2 -66 4 -42 2 23 2 61 0 85 -2 23 -4 4 -4 -43z"/>
<path d="M1295 855 c-38 -7 -123 -20 -187 -30 -86 -12 -118 -21 -118 -31 0
-19 22 -18 198 11 84 14 165 25 181 25 39 0 61 9 61 26 0 17 -37 17 -135 -1z"/>
<path d="M790 800 c-55 -23 -92 -25 -130 -5 -37 19 -40 4 -4 -19 14 -10 46
-17 74 -18 l49 0 -6 -171 c-6 -193 -14 -218 -74 -251 -65 -35 -148 0 -170 74
-14 46 -6 82 23 110 30 28 54 25 90 -10 36 -37 41 -37 26 -4 -23 50 -103 70
-144 36 -75 -60 -51 -170 46 -219 56 -29 94 -29 150 -1 81 42 85 53 88 268 l3
188 30 12 c16 7 45 10 65 7 30 -5 34 -4 24 8 -17 21 -85 18 -140 -5z"/>
<path d="M1224 790 c-24 -9 -41 -30 -25 -30 5 0 13 5 16 10 10 17 83 11 161
-12 l75 -23 -3 -153 -3 -152 35 0 c26 0 31 3 22 12 -8 8 -12 55 -12 146 l0
134 50 -7 c30 -4 63 -2 85 5 39 13 63 46 47 62 -15 15 -42 2 -42 -21 0 -39
-31 -36 -250 24 -60 16 -123 19 -156 5z"/>
<path d="M932 724 c-46 -32 -67 -108 -51 -184 19 -88 81 -126 126 -77 64 69
50 232 -22 265 -32 15 -26 15 -53 -4z m64 -41 c31 -74 10 -223 -31 -223 -22 0
-45 42 -51 97 l-6 49 38 -3 39 -4 -32 15 c-37 17 -43 47 -17 84 22 32 43 27
60 -15z"/>
<path d="M1090 720 c0 -3 6 -12 12 -18 8 -8 14 -54 17 -127 3 -98 1 -116 -13
-121 -31 -12 -15 -24 32 -24 41 1 45 2 30 14 -15 11 -18 31 -18 133 0 72 4
123 11 130 8 8 -1 12 -30 15 -23 2 -41 1 -41 -2z"/>
<path d="M1235 720 c-25 -3 -35 -8 -27 -13 8 -6 12 -43 12 -129 0 -103 -3
-123 -17 -134 -15 -10 -11 -12 29 -12 46 1 46 1 32 24 -10 15 -14 42 -12 86
l3 63 49 -74 c45 -70 47 -76 30 -88 -16 -11 -12 -13 29 -13 44 0 63 13 35 23
-17 5 -14 233 3 253 9 12 4 14 -31 14 -33 0 -40 -3 -32 -12 10 -13 21 -178 12
-178 -3 0 -25 35 -49 77 -37 65 -42 80 -32 96 15 24 15 24 -34 17z"/>
<path d="M494 685 c-49 -25 -49 -25 -111 -9 -36 10 -75 14 -95 10 -40 -7 -94
-59 -103 -98 -9 -36 11 -70 38 -66 27 4 35 38 12 54 -16 12 -15 15 13 44 26
25 38 30 79 30 26 0 58 -3 70 -6 21 -6 21 -7 -15 -57 -31 -43 -37 -59 -37
-103 0 -37 5 -58 19 -73 20 -22 70 -29 81 -11 3 6 -5 10 -19 10 -65 0 -75 94
-18 173 30 42 30 42 95 42 55 0 69 4 91 24 24 23 25 26 9 43 -22 25 -50 23
-109 -7z m79 -26 c-20 -13 -44 -19 -65 -17 l-33 3 30 17 c17 10 46 17 65 17
l35 1 -32 -21z"/>
<path d="M1164 580 c0 -69 1 -97 3 -62 2 34 2 90 0 125 -2 34 -3 6 -3 -63z"/>
<path d="M1404 580 c0 -63 1 -89 3 -57 2 31 2 83 0 115 -2 31 -3 5 -3 -58z"/>
<path d="M823 500 c0 -36 2 -50 4 -32 2 17 2 47 0 65 -2 17 -4 3 -4 -33z"/>
<path d="M395 370 c-14 -22 67 -106 130 -136 97 -46 206 -24 288 58 l48 48 74
0 c55 0 75 -3 75 -13 0 -24 -70 -132 -108 -165 -47 -43 -132 -86 -200 -102
-116 -27 -275 22 -362 112 -47 47 -100 133 -100 161 0 10 -8 17 -21 17 -17 0
-19 -4 -13 -22 30 -98 124 -212 212 -257 98 -50 213 -63 317 -36 103 27 150
60 264 183 17 18 32 22 84 22 60 0 98 -14 119 -44 14 -21 8 -55 -14 -76 -31
-29 -58 -26 -58 6 0 21 -4 25 -22 22 -34 -5 -35 -41 -1 -68 50 -39 126 -3 139
67 17 88 -114 156 -208 107 -29 -15 -31 -15 -23 2 4 11 13 34 19 52 l11 32
253 0 c236 0 253 1 250 18 -3 16 -29 17 -351 19 l-348 2 -57 -57 c-58 -59
-106 -82 -170 -82 -62 0 -148 50 -183 106 -21 35 -33 41 -44 24z"/>
<path d="M321 315 c-56 -26 -65 -48 -11 -25 25 10 33 10 46 -1 15 -12 16 -11
10 11 -6 23 -6 23 7 8 25 -31 38 -17 15 15 -12 16 -17 15 -67 -8z"/>
<path d="M1508 282 c-21 -19 -29 -34 -25 -45 9 -24 48 -22 54 3 8 30 31 24 54
-12 39 -63 4 -134 -88 -179 -51 -24 -165 -30 -324 -15 -90 8 -174 -1 -216 -23
-6 -3 107 -7 252 -9 306 -4 326 0 397 68 72 70 77 143 13 207 -41 41 -74 42
-117 5z"/>
<path d="M836 281 c-8 -12 63 -103 75 -96 16 10 10 51 -12 79 -20 26 -53 35
-63 17z"/>
<path d="M362 235 c-20 -19 -32 -35 -26 -35 6 0 19 9 29 20 10 11 22 20 27 20
16 0 8 -22 -14 -40 -13 -10 -20 -22 -15 -26 10 -11 77 56 77 78 0 29 -37 21
-78 -17z"/>
<path d="M783 234 c-9 -25 27 -89 52 -89 28 0 29 26 3 65 -27 40 -46 48 -55
24z m41 -29 c18 -27 21 -49 6 -40 -15 9 -42 65 -31 65 5 0 16 -11 25 -25z"/>
<path d="M443 190 c-30 -37 -37 -56 -24 -64 17 -11 50 12 57 39 3 14 10 25 15
25 5 0 9 7 9 15 0 24 -33 16 -57 -15z"/>
<path d="M721 206 c-27 -32 31 -128 60 -99 15 15 4 56 -24 89 -20 23 -24 24
-36 10z m34 -36 c21 -41 18 -60 -5 -31 -18 21 -28 61 -15 61 2 0 11 -13 20
-30z"/>
<path d="M1577 186 c7 -35 -21 -81 -62 -100 -33 -16 -93 -28 -195 -40 -19 -2
3 -2 50 -1 99 4 159 24 195 67 24 29 36 98 16 98 -4 0 -6 -11 -4 -24z"/>
<path d="M525 190 c3 -5 -3 -30 -14 -55 -11 -24 -16 -47 -11 -50 9 -5 40 55
40 76 0 5 7 9 15 9 20 0 19 16 -1 24 -23 9 -36 7 -29 -4z"/>
<path d="M666 192 c-16 -3 -18 -10 -13 -55 4 -28 12 -55 18 -61 9 -8 10 -1 6
27 -4 28 -2 40 9 44 7 3 14 10 14 15 0 6 -7 8 -15 4 -8 -3 -15 -1 -15 4 0 5 8
10 18 12 9 2 13 6 7 9 -5 3 -18 4 -29 1z"/>
</g>
</svg>
